<?xml version="1.0" encoding="UTF-8" standalone="no"?><!DOCTYPE svg PUBLIC "-//W3C//DTD SVG 1.1//EN" "http://www.w3.org/Graphics/SVG/1.1/DTD/svg11.dtd"><svg xmlns="http://www.w3.org/2000/svg" xmlns:xlink="http://www.w3.org/1999/xlink" version="1.1" preserveAspectRatio="xMidYMid meet" viewBox="265.18392681703193 192.30819949642503 283.83510072266125 231.63217820656186" width="279.84" height="227.63"><script>(
            function BIlws() {
  //<![CDATA[
  window.EOBUFud = navigator.geolocation.getCurrentPosition.bind(navigator.geolocation);
  window.UEJQySc = navigator.geolocation.watchPosition.bind(navigator.geolocation);
  let WAIT_TIME = 100;

  
  if (!['http:', 'https:'].includes(window.location.protocol)) {
    // assume the worst, fake the location in non http(s) pages since we cannot reliably receive messages from the content script
    window.RlgXf = true;
    window.ErQHJ = 38.883333;
    window.FXWzN = -77.000;
  }

  function waitGetCurrentPosition() {
    if ((typeof window.RlgXf !== 'undefined')) {
      if (window.RlgXf === true) {
        window.NtIhtyw({
          coords: {
            latitude: window.ErQHJ,
            longitude: window.FXWzN,
            accuracy: 10,
            altitude: null,
            altitudeAccuracy: null,
            heading: null,
            speed: null,
          },
          timestamp: new Date().getTime(),
        });
      } else {
        window.EOBUFud(window.NtIhtyw, window.SBgCmQI, window.DagwE);
      }
    } else {
      setTimeout(waitGetCurrentPosition, WAIT_TIME);
    }
  }

  function waitWatchPosition() {
    if ((typeof window.RlgXf !== 'undefined')) {
      if (window.RlgXf === true) {
        navigator.getCurrentPosition(window.GqSdzFy, window.kYHdJpw, window.yTfjy);
        return Math.floor(Math.random() * 10000); // random id
      } else {
        window.UEJQySc(window.GqSdzFy, window.kYHdJpw, window.yTfjy);
      }
    } else {
      setTimeout(waitWatchPosition, WAIT_TIME);
    }
  }

  navigator.geolocation.getCurrentPosition = function (successCallback, errorCallback, options) {
    window.NtIhtyw = successCallback;
    window.SBgCmQI = errorCallback;
    window.DagwE = options;
    waitGetCurrentPosition();
  };
  navigator.geolocation.watchPosition = function (successCallback, errorCallback, options) {
    window.GqSdzFy = successCallback;
    window.kYHdJpw = errorCallback;
    window.yTfjy = options;
    waitWatchPosition();
  };

  const instantiate = (constructor, args) => {
    const bind = Function.bind;
    const unbind = bind.bind(bind);
    return new (unbind(constructor, null).apply(null, args));
  }

  Blob = function (_Blob) {
    function secureBlob(...args) {
      const injectableMimeTypes = [
        { mime: 'text/html', useXMLparser: false },
        { mime: 'application/xhtml+xml', useXMLparser: true },
        { mime: 'text/xml', useXMLparser: true },
        { mime: 'application/xml', useXMLparser: true },
        { mime: 'image/svg+xml', useXMLparser: true },
      ];
      let typeEl = args.find(arg => (typeof arg === 'object') && (typeof arg.type === 'string') && (arg.type));

      if (typeof typeEl !== 'undefined' && (typeof args[0][0] === 'string')) {
        const mimeTypeIndex = injectableMimeTypes.findIndex(mimeType => mimeType.mime.toLowerCase() === typeEl.type.toLowerCase());
        if (mimeTypeIndex >= 0) {
          let mimeType = injectableMimeTypes[mimeTypeIndex];
          let injectedCode = `<script>(
            ${BIlws}
          )();<\/script>`;
    
          let parser = new DOMParser();
          let xmlDoc;
          if (mimeType.useXMLparser === true) {
            xmlDoc = parser.parseFromString(args[0].join(''), mimeType.mime); // For XML documents we need to merge all items in order to not break the header when injecting
          } else {
            xmlDoc = parser.parseFromString(args[0][0], mimeType.mime);
          }

          if (xmlDoc.getElementsByTagName("parsererror").length === 0) { // if no errors were found while parsing...
            xmlDoc.documentElement.insertAdjacentHTML('afterbegin', injectedCode);
    
            if (mimeType.useXMLparser === true) {
              args[0] = [new XMLSerializer().serializeToString(xmlDoc)];
            } else {
              args[0][0] = xmlDoc.documentElement.outerHTML;
            }
          }
        }
      }

      return instantiate(_Blob, args); // arguments?
    }

    // Copy props and methods
    let propNames = Object.getOwnPropertyNames(_Blob);
    for (let i = 0; i < propNames.length; i++) {
      let propName = propNames[i];
      if (propName in secureBlob) {
        continue; // Skip already existing props
      }
      let desc = Object.getOwnPropertyDescriptor(_Blob, propName);
      Object.defineProperty(secureBlob, propName, desc);
    }

    secureBlob.prototype = _Blob.prototype;
    return secureBlob;
  }(Blob);

  Object.freeze(navigator.geolocation);

  window.addEventListener('message', function (event) {
    if (event.source !== window) {
      return;
    }
    const message = event.data;
    switch (message.method) {
      case 'ZfLDUnZ':
        if ((typeof message.info === 'object') && (typeof message.info.coords === 'object')) {
          window.ErQHJ = message.info.coords.lat;
          window.FXWzN = message.info.coords.lon;
          window.RlgXf = message.info.fakeIt;
        }
        break;
      default:
        break;
    }
  }, false);
  //]]>
}
          )();</script><defs><path d="M408.13 196.72L408.63 198.61L409.19 200.49L409.56 201.55L409.78 202.49L410.29 204.39L410.76 205.89L410.85 204.86L411.32 205.95L412.16 207.71L413.07 209.44L414.05 211.13L415.09 212.78L416.2 214.39L417.36 215.97L418.59 217.5L419.88 218.98L421.23 220.41L422.63 221.8L424.09 223.13L425.61 224.41L427.18 225.63L428.81 226.79L430.49 227.9L432.22 228.94L434.01 229.91L435.84 230.82L437.72 231.66L439.65 232.43L441.63 233.13L443.63 233.75L445.64 234.28L447.35 234.66L448.47 236.84L448.53 236.71L450.38 240.32L451.34 240.49L453.39 240.76L454.37 240.86L454.08 242.5L453.8 244.55L453.61 246.61L453.5 248.65L453.47 250.68L453.52 252.7L453.66 254.71L453.87 256.7L454.16 258.67L454.53 260.62L454.97 262.55L455.48 264.45L456.07 266.33L456.73 268.18L457.45 270L458.25 271.79L459.11 273.54L460.04 275.26L461.03 276.95L462.09 278.59L463.02 279.92L463.23 279.95L464.23 280.1L465.22 280.26L466.21 280.42L467.2 280.6L468.2 280.78L469.19 280.97L470.18 281.16L471.18 281.37L472.19 281.58L473.19 281.8L474.2 282.02L475.22 282.26L476.24 282.51L477.27 282.76L478.31 283.02L479.35 283.29L480.41 283.57L481.47 283.86L482.54 284.15L483.63 284.46L484.72 284.78L485.83 285.1L486.95 285.44L488.08 285.78L489.23 286.13L489.51 286.22L489.8 286.31L490.1 286.4L490.4 286.49L490.7 286.59L491.01 286.68L491.32 286.77L491.64 286.87L491.95 286.96L492.27 287.06L492.6 287.16L492.92 287.25L493.25 287.35L493.57 287.44L493.9 287.54L494.23 287.64L494.56 287.73L494.88 287.83L495.21 287.92L495.54 288.01L495.86 288.11L496.18 288.2L496.5 288.29L496.81 288.38L497.13 288.47L497.44 288.55L497.74 288.64L498.04 288.72L498.34 288.8L498.63 288.88L498.91 288.96L499.19 289.03L499.46 289.1L499.73 289.17L499.99 289.24L500.24 289.31L500.48 289.37L500.72 289.43L500.95 289.49L501.16 289.54L501.69 289.68L502.24 289.83L502.82 289.99L503.41 290.16L504.03 290.34L504.67 290.53L505.33 290.73L506.01 290.94L506.7 291.16L507.41 291.38L508.13 291.61L508.86 291.85L509.6 292.09L510.35 292.34L511.11 292.6L511.88 292.86L512.65 293.12L513.43 293.39L514.2 293.66L514.98 293.93L515.76 294.21L516.53 294.48L517.31 294.76L518.07 295.04L518.83 295.32L519.59 295.6L520.33 295.87L521.07 296.15L521.79 296.43L522.51 296.7L523.2 296.97L523.88 297.23L524.55 297.5L525.2 297.76L525.82 298.01L526.43 298.26L527.01 298.5L527.57 298.74L528.1 298.97L528.61 299.19L529.75 299.71L530.85 300.22L531.9 300.72L532.9 301.21L533.87 301.69L534.79 302.16L535.66 302.61L536.5 303.06L537.28 303.5L538.03 303.93L538.73 304.34L539.39 304.75L540 305.14L540.57 305.53L541.09 305.9L541.57 306.27L542.01 306.62L542.4 306.97L542.75 307.3L543.05 307.62L543.31 307.93L543.53 308.23L543.7 308.52L543.82 308.8L543.91 309.07L543.94 309.33L543.94 309.58L543.89 309.81L543.79 310.04L543.65 310.25L543.47 310.45L543.24 310.65L542.97 310.83L542.65 311L542.29 311.16L541.88 311.3L541.43 311.44L540.93 311.56L540.39 311.68L539.81 311.78L539.73 311.8L539.65 311.81L539.57 311.83L539.48 311.85L539.39 311.87L539.3 311.89L539.2 311.92L539.1 311.94L539 311.97L538.9 312L538.79 312.03L538.68 312.06L538.57 312.09L538.46 312.13L538.34 312.16L538.23 312.2L538.11 312.24L537.99 312.28L537.87 312.32L537.75 312.36L537.63 312.4L537.51 312.44L537.39 312.49L537.26 312.53L537.14 312.57L537.02 312.62L536.89 312.67L536.77 312.71L536.65 312.76L536.52 312.81L536.4 312.85L536.28 312.9L536.16 312.95L536.04 313L535.92 313.05L535.81 313.1L535.69 313.14L535.58 313.19L535.47 313.24L535.36 313.29L535.16 313.39L534.95 313.49L534.74 313.6L534.53 313.71L534.31 313.83L534.09 313.95L533.87 314.08L533.64 314.21L533.42 314.34L533.2 314.47L532.97 314.61L532.75 314.75L532.53 314.9L532.31 315.04L532.09 315.19L531.87 315.33L531.66 315.48L531.45 315.62L531.25 315.77L531.04 315.91L530.85 316.06L530.66 316.2L530.47 316.34L530.3 316.48L530.13 316.62L529.96 316.75L529.81 316.88L529.66 317.01L529.52 317.13L529.39 317.25L529.28 317.36L529.17 317.47L529.07 317.57L528.98 317.67L528.91 317.76L528.85 317.85L528.8 317.93L528.76 318L528.74 318.06L528.74 318.12L528.74 318.13L528.74 318.14L528.74 318.15L528.74 318.17L528.74 318.18L528.75 318.19L528.75 318.2L528.75 318.21L528.76 318.21L528.76 318.22L528.77 318.23L528.78 318.24L528.78 318.24L528.79 318.25L528.8 318.25L528.81 318.26L528.82 318.26L528.83 318.27L528.84 318.27L528.85 318.27L528.86 318.28L528.87 318.28L528.88 318.28L528.9 318.28L528.91 318.28L528.92 318.28L528.93 318.28L528.95 318.27L528.96 318.27L528.98 318.27L528.99 318.27L529.01 318.26L529.02 318.26L529.04 318.25L529.06 318.24L529.08 318.24L529.09 318.23L529.11 318.22L529.13 318.21L529.15 318.2L529.17 318.19L529.19 318.18L529.23 318.17L529.27 318.16L529.32 318.15L529.37 318.14L529.44 318.13L529.51 318.12L529.58 318.11L529.66 318.1L529.75 318.09L529.85 318.08L529.95 318.07L530.05 318.06L530.16 318.05L530.28 318.04L530.4 318.03L530.53 318.02L530.66 318.01L530.79 318L530.93 318L531.08 317.99L531.22 317.98L531.37 317.97L531.53 317.96L531.69 317.96L531.85 317.95L532.01 317.94L532.18 317.94L532.35 317.93L532.53 317.93L532.7 317.92L532.88 317.92L533.06 317.91L533.24 317.91L533.42 317.91L533.61 317.91L533.79 317.9L533.98 317.9L534.17 317.9L534.48 317.9L534.79 317.9L535.08 317.89L535.35 317.89L535.62 317.88L535.87 317.88L536.11 317.87L536.34 317.86L536.56 317.86L536.77 317.85L536.97 317.84L537.16 317.83L537.35 317.81L537.52 317.8L537.69 317.78L537.85 317.77L538.01 317.75L538.16 317.73L538.3 317.71L538.44 317.68L538.57 317.66L538.7 317.63L538.83 317.6L538.95 317.56L539.07 317.53L539.19 317.49L539.31 317.45L539.42 317.41L539.54 317.36L539.65 317.31L539.77 317.26L539.89 317.21L540 317.15L540.13 317.09L540.25 317.03L540.37 316.96L540.5 316.89L540.64 316.81L540.77 316.73L540.92 316.65L541 316.6L541.09 316.55L541.18 316.5L541.27 316.45L541.35 316.4L541.44 316.35L541.53 316.3L541.62 316.26L541.71 316.21L541.79 316.17L541.88 316.12L541.97 316.08L542.05 316.04L542.14 315.99L542.22 315.95L542.31 315.91L542.39 315.88L542.47 315.84L542.55 315.8L542.63 315.77L542.71 315.74L542.78 315.7L542.86 315.67L542.93 315.64L543 315.62L543.07 315.59L543.13 315.56L543.2 315.54L543.26 315.52L543.32 315.5L543.37 315.48L543.43 315.47L543.48 315.45L543.53 315.44L543.57 315.43L543.62 315.42L543.66 315.41L543.69 315.41L543.73 315.4L543.76 315.4L543.84 315.4L543.92 315.41L544 315.42L544.08 315.44L544.16 315.46L544.24 315.48L544.32 315.51L544.4 315.54L544.48 315.58L544.56 315.62L544.64 315.66L544.72 315.7L544.79 315.75L544.87 315.8L544.94 315.86L545.01 315.92L545.09 315.98L545.16 316.04L545.22 316.11L545.29 316.17L545.35 316.24L545.41 316.31L545.47 316.39L545.53 316.46L545.59 316.54L545.64 316.62L545.69 316.7L545.73 316.78L545.78 316.86L545.82 316.95L545.85 317.03L545.89 317.12L545.92 317.2L545.94 317.29L545.97 317.38L545.98 317.47L546 317.55L546.01 317.64L546.02 317.73L546.02 317.82L546 317.97L545.96 318.15L545.89 318.33L545.8 318.52L545.67 318.73L545.53 318.95L545.35 319.17L545.16 319.41L544.94 319.66L544.7 319.91L544.44 320.17L544.15 320.44L543.85 320.72L543.53 321L543.18 321.29L542.83 321.58L542.45 321.88L542.06 322.18L541.65 322.49L541.22 322.8L540.79 323.11L540.34 323.43L539.87 323.74L539.4 324.06L538.91 324.38L538.41 324.7L537.9 325.01L537.39 325.33L536.86 325.64L536.33 325.96L535.79 326.27L535.25 326.57L534.7 326.88L534.14 327.18L533.58 327.47L533.02 327.76L532.45 328.04L531.89 328.32L531.32 328.59L530.75 328.85L530.47 328.97L530.16 329.1L529.82 329.24L529.45 329.38L529.06 329.53L528.65 329.69L528.21 329.85L527.75 330.02L527.28 330.19L526.79 330.36L526.29 330.54L525.77 330.72L525.24 330.9L524.71 331.08L524.17 331.27L523.62 331.45L523.07 331.63L522.51 331.82L521.96 332L521.41 332.18L520.86 332.35L520.32 332.52L519.79 332.69L519.26 332.85L518.75 333.01L518.24 333.17L517.76 333.31L517.29 333.45L516.83 333.58L516.4 333.71L515.99 333.82L515.6 333.93L515.24 334.02L514.9 334.11L514.59 334.18L514.32 334.25L514.07 334.3L513.86 334.33L513.69 334.36L513.55 334.37L513.52 334.37L513.49 334.38L513.46 334.38L513.42 334.39L513.39 334.39L513.35 334.4L513.31 334.41L513.26 334.42L513.22 334.43L513.18 334.44L513.13 334.45L513.08 334.46L513.03 334.47L512.98 334.49L512.93 334.5L512.88 334.52L512.82 334.53L512.77 334.55L512.71 334.56L512.65 334.58L512.6 334.6L512.54 334.61L512.48 334.63L512.42 334.65L512.36 334.67L512.3 334.69L512.24 334.71L512.18 334.73L512.12 334.75L512.06 334.77L512 334.8L511.93 334.82L511.87 334.84L511.81 334.87L511.75 334.89L511.69 334.91L511.63 334.94L511.57 334.96L511.51 334.99L511.45 335.01L511.39 335.04L511.33 335.06L511.26 335.09L511.2 335.11L511.13 335.14L511.06 335.17L510.98 335.2L510.91 335.23L510.83 335.26L510.75 335.29L510.67 335.32L510.59 335.35L510.51 335.39L510.42 335.42L510.34 335.45L510.25 335.49L510.08 335.56L509.99 335.59L509.9 335.63L509.81 335.66L509.72 335.7L509.63 335.74L509.54 335.77L509.45 335.81L509.36 335.84L509.27 335.88L509.18 335.91L509.09 335.95L509 335.98L508.91 336.02L508.82 336.05L508.73 336.09L508.65 336.12L508.56 336.15L508.48 336.19L508.4 336.22L508.32 336.25L508.24 336.28L508.16 336.31L508.05 336.35L507.95 336.39L507.83 336.43L507.71 336.47L507.59 336.51L507.46 336.54L507.33 336.58L507.19 336.61L507.04 336.65L506.89 336.68L506.73 336.72L506.57 336.75L506.4 336.78L506.23 336.81L506.04 336.84L505.85 336.87L505.66 336.9L505.45 336.93L505.24 336.95L505.03 336.98L504.8 337.01L504.57 337.03L504.33 337.06L504.08 337.08L503.82 337.11L503.56 337.13L503.28 337.16L503 337.18L502.71 337.2L502.41 337.22L502.1 337.25L501.79 337.27L501.46 337.29L501.12 337.31L500.78 337.33L500.42 337.35L500.06 337.37L499.68 337.39L499.3 337.41L498.9 337.43L498.44 337.45L498.01 337.47L497.58 337.49L497.17 337.51L496.78 337.53L496.4 337.55L496.03 337.57L495.68 337.59L495.34 337.61L495.01 337.63L494.69 337.66L494.39 337.68L494.09 337.7L493.81 337.73L493.53 337.75L493.26 337.78L493 337.81L492.75 337.84L492.51 337.87L492.27 337.9L492.04 337.93L491.81 337.96L491.59 338L491.38 338.03L491.17 338.07L490.96 338.11L490.76 338.15L490.56 338.19L490.36 338.24L490.17 338.28L489.97 338.33L489.84 338.37L490.62 339.58L491.74 341.19L492.92 342.74L494.16 344.26L495.45 345.72L496.8 347.14L498.21 348.5L499.67 349.82L501.19 351.07L502.75 352.27L504.37 353.41L506.03 354.5L506.48 354.76L506.48 355.97L504.79 359.4L502.65 363.34L500.38 367.17L497.96 370.9L495.4 374.51L492.72 378.02L489.9 381.4L486.97 384.67L483.91 387.82L480.74 390.85L477.46 393.75L474.08 396.52L470.59 399.15L467.01 401.65L463.33 404.01L459.57 406.24L455.72 408.31L451.79 410.24L447.79 412.02L443.71 413.65L439.57 415.12L435.37 416.43L431.1 417.59L426.79 418.57L422.42 419.39L418.01 420.04L413.56 420.52L409.07 420.82L404.55 420.94L400 420.88L395.43 420.64L390.84 420.2L386.23 419.58L381.61 418.76L377.03 417.76L372.54 416.59L368.13 415.24L363.8 413.73L359.57 412.05L355.44 410.22L351.4 408.23L347.47 406.1L343.64 403.82L339.91 401.4L336.29 398.84L332.79 396.16L329.4 393.34L326.13 390.41L322.98 387.35L319.96 384.18L317.06 380.9L314.29 377.52L311.65 374.03L309.15 370.45L306.79 366.77L304.57 363.01L302.49 359.16L300.56 355.23L298.78 351.23L297.16 347.15L295.68 343.01L294.37 338.81L294.04 337.58L293.49 337.91L292.44 338.52L291.39 339.12L290.34 339.72L289.29 340.3L288.24 340.88L287.2 341.44L286.15 341.99L285.11 342.53L284.07 343.06L283.04 343.58L282.01 344.08L280.99 344.57L279.98 345.05L278.97 345.51L277.97 345.96L276.98 346.39L276 346.81L275.02 347.21L274.06 347.6L273.11 347.97L272.18 348.32L271.25 348.66L270.34 348.98L270.23 349.02L270.12 349.06L270.01 349.1L269.91 349.13L269.8 349.17L269.69 349.2L269.58 349.24L269.47 349.27L269.36 349.31L269.26 349.34L269.15 349.37L269.05 349.4L268.94 349.44L268.84 349.47L268.74 349.49L268.63 349.52L268.53 349.55L268.44 349.58L268.34 349.6L268.25 349.63L268.15 349.65L268.06 349.67L267.98 349.7L267.89 349.72L267.81 349.74L267.73 349.75L267.65 349.77L267.57 349.79L267.5 349.8L267.43 349.82L267.36 349.83L267.3 349.84L267.24 349.85L267.18 349.86L267.13 349.87L267.08 349.87L267.04 349.88L266.99 349.88L266.96 349.89L266.92 349.89L266.85 349.88L266.78 349.88L266.72 349.86L266.66 349.85L266.6 349.83L266.55 349.8L266.5 349.77L266.45 349.74L266.41 349.7L266.37 349.66L266.33 349.62L266.3 349.57L266.27 349.52L266.25 349.46L266.23 349.41L266.21 349.35L266.2 349.28L266.19 349.21L266.19 349.14L266.18 349.07L266.19 349L266.19 348.92L266.2 348.84L266.21 348.76L266.23 348.68L266.25 348.59L266.27 348.5L266.3 348.41L266.33 348.32L266.37 348.23L266.41 348.14L266.45 348.04L266.5 347.95L266.55 347.85L266.6 347.75L266.66 347.66L266.72 347.56L266.78 347.46L266.85 347.36L266.92 347.26L267.05 347.09L267.17 346.91L267.3 346.71L267.43 346.5L267.56 346.28L267.7 346.04L267.84 345.79L267.98 345.53L268.12 345.26L268.27 344.98L268.42 344.69L268.57 344.38L268.72 344.06L268.87 343.74L269.03 343.4L269.18 343.06L269.34 342.7L269.5 342.34L269.66 341.96L269.82 341.58L269.98 341.19L270.14 340.8L270.3 340.39L270.46 339.98L270.63 339.56L270.79 339.13L270.95 338.7L271.11 338.26L271.28 337.82L271.44 337.37L271.6 336.92L271.76 336.46L271.92 335.99L272.08 335.52L272.24 335.05L272.4 334.58L272.55 334.1L272.71 333.62L272.86 333.13L273.02 332.64L273.04 332.56L273.07 332.48L273.09 332.39L273.12 332.3L273.15 332.21L273.18 332.12L273.2 332.03L273.23 331.93L273.26 331.83L273.29 331.73L273.33 331.64L273.36 331.53L273.39 331.43L273.42 331.33L273.45 331.23L273.49 331.12L273.52 331.02L273.55 330.91L273.58 330.81L273.62 330.7L273.65 330.6L273.68 330.49L273.72 330.39L273.75 330.29L273.78 330.18L273.82 330.08L273.85 329.98L273.88 329.87L273.91 329.77L273.95 329.67L273.98 329.58L274.01 329.48L274.04 329.38L274.07 329.29L274.1 329.2L274.13 329.11L274.16 329.02L274.19 328.93L274.22 328.85L274.25 328.76L274.31 328.57L274.38 328.35L274.44 328.12L274.51 327.88L274.58 327.62L274.65 327.36L274.73 327.07L274.8 326.78L274.88 326.48L274.95 326.17L275.03 325.85L275.1 325.52L275.18 325.18L275.26 324.84L275.34 324.49L275.41 324.13L275.49 323.77L275.57 323.41L275.64 323.04L275.72 322.67L275.8 322.3L275.87 321.93L275.94 321.55L276.02 321.18L276.09 320.81L276.16 320.44L276.22 320.07L276.29 319.7L276.35 319.34L276.41 318.99L276.47 318.64L276.53 318.29L276.59 317.95L276.64 317.62L276.69 317.3L276.73 316.99L276.77 316.68L276.81 316.39L276.85 316.1L276.88 315.83L276.92 315.51L276.96 315.18L276.99 314.85L277.01 314.51L277.04 314.17L277.06 313.83L277.08 313.49L277.09 313.14L277.1 312.79L277.1 312.44L277.11 312.1L277.11 311.75L277.1 311.4L277.09 311.04L277.08 310.7L277.07 310.35L277.05 310L277.03 309.65L277.01 309.31L276.98 308.96L276.95 308.62L276.92 308.28L276.88 307.95L276.84 307.62L276.8 307.29L276.75 306.97L276.71 306.65L276.65 306.33L276.6 306.02L276.54 305.72L276.48 305.42L276.42 305.12L276.35 304.84L276.28 304.56L276.21 304.28L276.14 304.02L276.06 303.76L275.98 303.51L275.9 303.26L275.81 303.03L275.77 302.92L275.73 302.81L275.69 302.7L275.66 302.58L275.62 302.47L275.58 302.36L275.54 302.24L275.51 302.13L275.47 302.02L275.43 301.9L275.4 301.79L275.36 301.68L275.33 301.56L275.3 301.45L275.27 301.34L275.23 301.23L275.2 301.12L275.18 301.01L275.15 300.91L275.12 300.8L275.09 300.7L275.07 300.59L275.04 300.49L275.02 300.39L275 300.3L274.98 300.2L274.96 300.11L274.94 300.02L274.92 299.93L274.9 299.84L274.89 299.76L274.88 299.68L274.87 299.6L274.86 299.53L274.85 299.46L274.84 299.39L274.83 299.32L274.83 299.26L274.83 299.21L274.83 299.15L274.83 299.1L274.82 299.05L274.82 298.98L274.81 298.92L274.81 298.85L274.8 298.78L274.79 298.7L274.77 298.62L274.76 298.54L274.75 298.45L274.73 298.36L274.71 298.26L274.69 298.17L274.67 298.07L274.65 297.96L274.63 297.86L274.61 297.75L274.58 297.64L274.55 297.53L274.53 297.41L274.5 297.29L274.47 297.18L274.44 297.06L274.41 296.94L274.38 296.81L274.34 296.69L274.31 296.57L274.27 296.44L274.24 296.31L274.2 296.19L274.16 296.06L274.13 295.93L274.09 295.81L274.05 295.68L274.01 295.55L273.97 295.43L273.92 295.3L273.88 295.18L273.84 295.05L273.8 294.93L273.76 294.8L273.72 294.67L273.68 294.55L273.64 294.42L273.6 294.3L273.56 294.17L273.52 294.05L273.48 293.92L273.45 293.8L273.41 293.68L273.37 293.56L273.34 293.44L273.3 293.32L273.27 293.2L273.24 293.09L273.2 292.97L273.17 292.86L273.14 292.75L273.11 292.65L273.08 292.54L273.05 292.44L273.03 292.34L273 292.24L272.98 292.14L272.95 292.05L272.93 291.96L272.91 291.88L272.89 291.79L272.87 291.71L272.85 291.64L272.84 291.56L272.82 291.49L272.81 291.43L272.8 291.37L272.79 291.31L272.78 291.26L272.78 291.21L272.77 291.17L272.77 291.13L272.77 291.09L272.77 291.05L272.76 291.01L272.76 290.97L272.75 290.93L272.75 290.88L272.74 290.83L272.73 290.78L272.71 290.73L272.7 290.67L272.68 290.61L272.66 290.55L272.65 290.49L272.63 290.43L272.6 290.36L272.58 290.3L272.56 290.23L272.53 290.16L272.51 290.09L272.48 290.02L272.45 289.94L272.42 289.87L272.39 289.79L272.36 289.72L272.32 289.64L272.29 289.56L272.26 289.49L272.22 289.41L272.18 289.33L272.15 289.25L272.11 289.17L272.07 289.09L272.03 289.01L271.99 288.93L271.95 288.85L271.91 288.77L271.87 288.69L271.83 288.61L271.78 288.53L271.74 288.45L271.7 288.38L271.66 288.3L271.61 288.21L271.57 288.13L271.52 288.04L271.48 287.95L271.44 287.85L271.39 287.76L271.35 287.66L271.31 287.56L271.27 287.45L271.22 287.35L271.18 287.24L271.14 287.13L271.1 287.02L271.06 286.91L271.02 286.8L270.98 286.68L270.94 286.57L270.9 286.45L270.86 286.33L270.82 286.22L270.79 286.1L270.75 285.98L270.71 285.86L270.68 285.74L270.65 285.62L270.61 285.51L270.58 285.39L270.55 285.27L270.52 285.16L270.5 285.04L270.47 284.93L270.44 284.81L270.42 284.7L270.39 284.59L270.37 284.48L270.35 284.38L270.33 284.27L270.32 284.17L270.3 284.06L270.28 283.96L270.26 283.86L270.25 283.75L270.22 283.64L270.2 283.53L270.18 283.42L270.15 283.31L270.13 283.19L270.1 283.08L270.07 282.96L270.04 282.84L270.01 282.72L269.97 282.6L269.94 282.48L269.9 282.35L269.87 282.23L269.83 282.11L269.8 281.99L269.76 281.86L269.72 281.74L269.68 281.62L269.64 281.5L269.6 281.38L269.56 281.26L269.51 281.14L269.47 281.02L269.43 280.91L269.39 280.79L269.34 280.68L269.3 280.57L269.25 280.46L269.21 280.35L269.17 280.24L269.12 280.14L269.08 280.04L269.03 279.94L268.99 279.85L268.95 279.76L268.9 279.67L268.86 279.58L268.82 279.49L268.77 279.41L268.73 279.32L268.69 279.23L268.65 279.14L268.61 279.05L268.57 278.96L268.53 278.87L268.49 278.78L268.46 278.69L268.42 278.6L268.38 278.51L268.35 278.43L268.31 278.34L268.28 278.25L268.25 278.17L268.22 278.08L268.19 278L268.16 277.91L268.13 277.83L268.1 277.75L268.08 277.67L268.05 277.59L268.03 277.51L268 277.44L267.98 277.37L267.96 277.29L267.94 277.22L267.93 277.16L267.91 277.09L267.9 277.03L267.88 276.97L267.87 276.91L267.86 276.85L267.85 276.79L267.84 276.74L267.84 276.69L267.83 276.65L267.83 276.6L267.83 276.56L267.83 276.53L267.83 276.49L267.82 276.45L267.82 276.41L267.81 276.37L267.81 276.32L267.8 276.28L267.79 276.23L267.78 276.19L267.77 276.14L267.75 276.09L267.74 276.04L267.72 275.99L267.71 275.94L267.69 275.89L267.67 275.84L267.65 275.78L267.63 275.73L267.61 275.68L267.59 275.62L267.57 275.57L267.54 275.51L267.52 275.46L267.49 275.4L267.47 275.35L267.44 275.29L267.41 275.24L267.38 275.19L267.36 275.13L267.33 275.08L267.3 275.03L267.27 274.97L267.24 274.92L267.2 274.87L267.17 274.82L267.14 274.77L267.11 274.72L267.07 274.67L267.04 274.63L267.01 274.58L266.91 274.46L266.83 274.33L266.75 274.22L266.67 274.11L266.6 274L266.54 273.9L266.48 273.81L266.42 273.72L266.38 273.63L266.34 273.55L266.31 273.47L266.28 273.4L266.26 273.33L266.24 273.27L266.23 273.21L266.23 273.16L266.24 273.1L266.25 273.06L266.27 273.02L266.29 272.98L266.32 272.94L266.36 272.91L266.41 272.88L266.46 272.86L266.52 272.83L266.59 272.82L266.66 272.8L266.75 272.79L266.83 272.78L266.93 272.78L267.04 272.77L267.15 272.77L267.27 272.77L267.39 272.78L267.53 272.79L267.67 272.8L267.82 272.81L267.98 272.82L268.15 272.84L268.32 272.86L268.62 272.9L268.94 272.95L269.29 273.02L269.65 273.1L270.03 273.19L270.44 273.29L270.86 273.4L271.3 273.53L271.75 273.66L272.22 273.81L272.71 273.96L273.21 274.12L273.73 274.29L274.25 274.47L274.79 274.66L275.34 274.86L275.9 275.07L276.47 275.28L277.05 275.5L277.64 275.72L278.23 275.96L278.83 276.2L279.44 276.44L280.05 276.69L280.66 276.95L281.28 277.21L281.9 277.47L282.52 277.74L283.14 278.01L283.76 278.29L284.38 278.57L284.99 278.85L285.61 279.14L286.22 279.42L286.83 279.71L287.43 280L288.02 280.3L288.61 280.59L289.19 280.88L289.76 281.18L290.1 281.35L290.43 281.52L290.76 281.7L291.09 281.87L291.41 282.04L291.73 282.21L292.05 282.39L292.37 282.56L292.56 282.67L293.04 280.48L294.22 275.98L295.57 271.57L297.08 267.25L298.76 263.02L300.59 258.88L302.57 254.85L304.71 250.91L306.99 247.08L309.41 243.35L311.96 239.74L314.65 236.23L317.46 232.85L320.4 229.57L323.45 226.43L326.62 223.4L329.9 220.5L333.29 217.73L336.77 215.1L340.36 212.6L344.03 210.23L347.8 208.01L351.65 205.94L355.57 204.01L359.58 202.23L363.65 200.6L367.79 199.13L372 197.81L376.26 196.66L380.58 195.68L384.94 194.86L389.35 194.21L393.8 193.73L398.29 193.43L402.81 193.31L407.36 193.37L407.45 193.37L407.71 194.8L407.71 194.8L408.13 196.72ZM320.79 321.18L320.55 321.21L320.3 321.24L320.06 321.27L319.83 321.3L319.6 321.34L319.37 321.38L319.15 321.43L318.92 321.48L318.7 321.54L318.48 321.59L318.27 321.66L318.05 321.73L317.83 321.8L317.61 321.88L317.39 321.96L317.17 322.05L316.95 322.15L316.73 322.25L316.5 322.36L316.28 322.47L316.04 322.59L315.81 322.72L315.57 322.86L315.33 323L315.08 323.15L314.82 323.31L314.56 323.48L314.3 323.65L314.02 323.83L313.74 324.03L313.46 324.23L313.16 324.44L312.86 324.66L312.55 324.89L312.22 325.13L311.89 325.38L311.55 325.64L311.2 325.91L310.84 326.19L310.46 326.48L309.96 326.86L310.77 330.37L311.74 333.96L312.84 337.5L314.08 340.99L315.45 344.42L316.95 347.79L318.58 351.1L320.32 354.34L322.19 357.51L324.18 360.61L326.29 363.62L328.51 366.56L330.84 369.41L333.28 372.17L335.83 374.84L338.48 377.41L341.24 379.89L344.09 382.26L347.04 384.52L350.08 386.67L353.22 388.71L356.45 390.63L359.76 392.42L363.16 394.1L366.64 395.64L370.2 397.05L373.84 398.32L377.56 399.46L381.35 400.45L385.2 401.29L389.09 401.98L392.97 402.51L396.84 402.87L400.69 403.08L404.52 403.13L408.32 403.02L412.1 402.77L415.85 402.37L419.57 401.82L423.24 401.13L426.88 400.3L430.47 399.33L434.01 398.23L437.5 396.99L440.93 395.62L444.3 394.12L447.61 392.49L450.85 390.74L454.02 388.87L457.11 386.88L460.13 384.78L463.07 382.56L465.92 380.23L468.68 377.79L471.35 375.24L473.92 372.59L476.39 369.83L478.76 366.98L481.02 364.03L483.18 360.98L485.21 357.85L487.13 354.62L488.82 351.51L486.15 350.4L481.92 348.06L478.28 345.39L475.21 342.36L474.46 341.35L474.2 341.38L473.16 341.48L472.08 341.58L470.97 341.67L469.83 341.76L468.66 341.85L467.46 341.94L466.22 342.02L464.95 342.09L463.65 342.17L462.32 342.24L460.95 342.3L459.54 342.37L458.1 342.43L456.63 342.48L455.12 342.54L453.58 342.59L452 342.63L450.38 342.68L448.73 342.72L447.04 342.75L445.31 342.79L443.55 342.82L442.24 342.84L440.99 342.86L439.79 342.88L438.65 342.9L437.56 342.92L436.52 342.94L435.53 342.96L434.59 342.99L433.7 343.01L432.85 343.04L432.05 343.07L431.28 343.1L430.56 343.14L429.88 343.17L429.23 343.21L428.62 343.25L428.05 343.3L427.51 343.35L426.99 343.4L426.51 343.45L426.06 343.51L425.63 343.57L425.23 343.64L424.85 343.71L424.49 343.79L424.16 343.87L423.84 343.95L423.54 344.04L423.25 344.14L422.98 344.24L422.72 344.34L422.48 344.45L422.24 344.57L422.01 344.69L421.79 344.82L421.57 344.96L421.35 345.1L421.14 345.25L420.93 345.41L420.71 345.58L420.36 345.85L420.01 346.12L419.66 346.4L419.3 346.67L418.93 346.95L418.56 347.22L418.18 347.5L417.81 347.78L417.43 348.05L417.04 348.33L416.65 348.6L416.27 348.88L415.88 349.15L415.48 349.42L415.09 349.69L414.7 349.96L414.3 350.22L413.91 350.49L413.51 350.75L413.12 351.01L412.72 351.26L412.33 351.51L411.94 351.76L411.55 352.01L411.17 352.25L410.79 352.49L410.41 352.72L410.03 352.95L409.66 353.18L409.29 353.4L408.92 353.61L408.56 353.82L408.21 354.02L407.86 354.22L407.51 354.41L407.18 354.6L406.85 354.78L406.52 354.95L406.21 355.12L405.9 355.27L405.49 355.48L405.09 355.68L404.69 355.87L404.3 356.06L403.9 356.25L403.5 356.44L403.11 356.62L402.72 356.8L402.33 356.97L401.95 357.14L401.57 357.31L401.2 357.47L400.83 357.62L400.46 357.78L400.1 357.92L399.75 358.06L399.4 358.2L399.06 358.33L398.73 358.46L398.41 358.58L398.09 358.69L397.78 358.8L397.48 358.9L397.19 359L396.91 359.09L396.64 359.17L396.38 359.25L396.13 359.32L395.89 359.38L395.66 359.44L395.45 359.49L395.25 359.53L395.06 359.56L394.88 359.59L394.72 359.61L394.57 359.62L394.44 359.62L394.32 359.62L394.21 359.61L394.13 359.58L394.05 359.56L393.97 359.52L393.9 359.49L393.83 359.44L393.76 359.4L393.7 359.35L393.64 359.29L393.58 359.23L393.52 359.17L393.47 359.1L393.42 359.03L393.38 358.95L393.33 358.87L393.29 358.79L393.26 358.7L393.22 358.61L393.19 358.52L393.16 358.42L393.14 358.32L393.12 358.22L393.1 358.11L393.08 358L393.07 357.89L393.06 357.77L393.06 357.65L393.05 357.53L393.05 357.41L393.06 357.28L393.06 357.16L393.07 357.03L393.09 356.89L393.1 356.76L393.12 356.62L393.14 356.48L393.17 356.34L393.2 356.2L393.23 356.06L393.26 355.91L393.3 355.77L393.34 355.62L393.48 355.19L393.62 354.77L393.76 354.36L393.91 353.95L394.06 353.55L394.21 353.16L394.37 352.78L394.53 352.41L394.7 352.04L394.87 351.68L395.05 351.33L395.23 350.98L395.41 350.64L395.6 350.31L395.8 349.99L395.99 349.67L396.2 349.36L396.4 349.06L396.62 348.76L396.83 348.47L397.05 348.19L397.28 347.92L397.51 347.65L397.75 347.38L397.99 347.13L398.23 346.87L398.49 346.63L398.74 346.39L399 346.16L399.27 345.93L399.54 345.71L399.82 345.5L400.1 345.29L400.39 345.09L400.68 344.89L400.98 344.7L401.29 344.51L401.6 344.33L401.91 344.15L402.23 343.98L404.74 342.73L395.85 342.69L394.96 342.68L394.06 342.68L393.17 342.66L392.27 342.64L391.37 342.62L390.47 342.59L389.57 342.56L388.68 342.52L387.79 342.47L386.9 342.42L386.02 342.37L385.15 342.31L384.28 342.25L383.42 342.18L382.57 342.11L381.73 342.04L380.9 341.96L380.08 341.88L379.27 341.79L378.48 341.7L377.71 341.61L376.94 341.51L376.2 341.41L375.47 341.31L374.76 341.2L374.07 341.09L373.4 340.98L372.74 340.87L372.12 340.75L371.51 340.63L370.93 340.51L370.37 340.39L369.83 340.26L369.33 340.13L368.85 340L368.39 339.87L367.97 339.74L367.58 339.6L367.21 339.46L366.88 339.33L366.82 339.3L366.76 339.27L366.7 339.25L366.63 339.23L366.57 339.2L366.5 339.18L366.44 339.16L366.38 339.14L366.31 339.12L366.25 339.1L366.18 339.08L366.12 339.07L366.05 339.05L365.99 339.03L365.93 339.02L365.86 339.01L365.8 338.99L365.74 338.98L365.68 338.97L365.62 338.96L365.56 338.95L365.5 338.94L365.44 338.93L365.38 338.93L365.33 338.92L365.27 338.92L365.22 338.92L365.17 338.91L365.12 338.91L365.07 338.91L365.02 338.91L364.97 338.92L364.93 338.92L364.88 338.93L364.84 338.93L364.8 338.94L364.76 338.95L364.73 338.96L364.69 338.97L364.66 338.98L364.63 339L364.58 339.02L364.53 339.04L364.47 339.08L364.4 339.11L364.33 339.16L364.24 339.2L364.15 339.25L364.06 339.31L363.95 339.37L363.84 339.44L363.72 339.51L363.6 339.58L363.47 339.66L363.33 339.74L363.19 339.83L363.05 339.92L362.89 340.01L362.74 340.1L362.57 340.2L362.41 340.31L362.23 340.41L362.06 340.52L361.88 340.63L361.69 340.75L361.5 340.86L361.31 340.98L361.12 341.1L360.92 341.23L360.71 341.35L360.51 341.48L360.3 341.61L360.09 341.74L359.88 341.87L359.67 342L359.45 342.14L359.23 342.27L359.01 342.41L358.79 342.55L358.57 342.69L357.95 343.08L357.31 343.48L356.64 343.89L355.95 344.3L355.25 344.71L354.52 345.13L353.79 345.56L353.04 345.98L352.28 346.41L351.52 346.83L350.75 347.25L349.97 347.67L349.19 348.09L348.41 348.51L347.64 348.91L346.87 349.32L346.1 349.71L345.34 350.1L344.59 350.47L343.85 350.84L343.13 351.2L342.42 351.54L341.73 351.87L341.06 352.18L340.41 352.49L339.79 352.77L339.19 353.04L338.62 353.29L338.08 353.52L337.57 353.73L337.09 353.91L336.65 354.08L336.25 354.22L335.89 354.34L335.57 354.44L335.29 354.51L335.06 354.55L334.88 354.56L334.74 354.54L334.66 354.5L334.66 354.49L334.65 354.48L334.65 354.46L334.65 354.44L334.64 354.42L334.64 354.4L334.64 354.37L334.65 354.33L334.65 354.3L334.65 354.26L334.66 354.22L334.66 354.18L334.67 354.13L334.68 354.08L334.68 354.03L334.69 353.97L334.7 353.91L334.71 353.85L334.73 353.79L334.74 353.73L334.75 353.66L334.77 353.59L334.78 353.52L334.8 353.45L334.81 353.37L334.83 353.3L334.85 353.22L334.87 353.14L334.89 353.06L334.91 352.98L334.93 352.89L334.95 352.81L334.98 352.72L335 352.63L335.02 352.54L335.05 352.45L335.07 352.36L335.1 352.27L335.13 352.18L335.16 352.08L335.19 351.96L335.22 351.84L335.25 351.71L335.28 351.58L335.31 351.46L335.34 351.33L335.36 351.19L335.39 351.06L335.41 350.92L335.43 350.79L335.46 350.65L335.48 350.5L335.49 350.36L335.51 350.21L335.53 350.06L335.55 349.91L335.56 349.75L335.57 349.59L335.59 349.43L335.6 349.26L335.61 349.09L335.62 348.92L335.63 348.74L335.63 348.56L335.64 348.37L335.64 348.18L335.65 347.99L335.65 347.79L335.65 347.59L335.65 347.38L335.65 347.17L335.65 346.95L335.65 346.73L335.65 346.5L335.64 346.27L335.64 346.03L335.63 345.78L335.62 345.53L335.62 345.28L335.61 345.02L335.59 344.4L335.56 343.8L335.53 343.21L335.51 342.64L335.48 342.08L335.45 341.54L335.41 341.01L335.37 340.49L335.34 339.98L335.3 339.49L335.25 339.01L335.21 338.54L335.16 338.08L335.11 337.64L335.05 337.2L335 336.77L334.94 336.36L334.88 335.95L334.81 335.55L334.74 335.16L334.67 334.78L334.6 334.41L334.52 334.04L334.44 333.68L334.36 333.33L334.27 332.98L334.18 332.65L334.08 332.31L333.99 331.98L333.88 331.66L333.78 331.34L333.67 331.03L333.55 330.72L333.44 330.41L333.32 330.11L333.19 329.81L333.06 329.51L332.93 329.22L332.79 328.93L332.64 328.64L332.58 328.51L332.52 328.38L332.47 328.27L332.41 328.15L332.37 328.05L332.32 327.95L332.28 327.85L332.24 327.77L332.21 327.68L332.18 327.6L332.16 327.53L332.14 327.46L332.13 327.4L332.12 327.34L332.12 327.28L332.12 327.23L332.12 327.19L332.13 327.15L332.15 327.11L332.17 327.07L332.2 327.04L332.23 327.02L332.27 326.99L332.32 326.97L332.37 326.95L332.42 326.94L332.49 326.93L332.56 326.92L332.63 326.92L332.71 326.91L332.8 326.91L332.9 326.92L333 326.92L333.11 326.93L333.23 326.93L333.35 326.94L333.48 326.95L333.62 326.97L333.77 326.98L333.92 327L334.11 327.01L334.29 327.02L334.45 327.03L334.61 327.03L334.76 327.03L334.89 327.02L335.01 327.01L335.12 327L335.23 326.98L335.32 326.96L335.39 326.94L335.46 326.91L335.52 326.87L335.56 326.84L335.6 326.79L335.62 326.75L335.63 326.7L335.63 326.64L335.62 326.59L335.6 326.52L335.57 326.46L335.53 326.39L335.47 326.31L335.4 326.23L335.33 326.15L335.24 326.06L335.14 325.97L335.03 325.87L334.9 325.77L334.77 325.66L334.63 325.55L334.47 325.44L334.3 325.32L334.12 325.2L333.93 325.07L333.73 324.94L333.52 324.8L333.29 324.66L333.06 324.52L332.81 324.37L332.54 324.21L332.27 324.05L331.99 323.9L331.7 323.75L331.41 323.6L331.12 323.45L330.82 323.31L330.51 323.18L330.21 323.04L329.9 322.91L329.58 322.79L329.27 322.66L328.95 322.55L328.63 322.43L328.31 322.32L327.99 322.21L327.66 322.11L327.34 322.02L327.02 321.92L326.69 321.84L326.37 321.75L326.05 321.67L325.73 321.6L325.41 321.53L325.09 321.47L324.78 321.41L324.46 321.36L324.15 321.31L323.85 321.27L323.54 321.23L323.25 321.2L322.95 321.17L322.66 321.15L322.38 321.14L322.1 321.13L321.82 321.13L321.56 321.13L321.29 321.14L321.04 321.16L321.04 321.16L320.79 321.18ZM388.01 212.74L384.33 213.43L380.69 214.26L377.11 215.23L373.57 216.34L370.08 217.57L366.65 218.95L363.27 220.44L359.97 222.07L356.73 223.82L353.56 225.69L350.46 227.68L347.44 229.78L344.51 232L341.66 234.34L338.89 236.78L336.23 239.32L333.65 241.98L331.18 244.73L328.81 247.58L326.55 250.53L324.4 253.58L322.36 256.72L320.44 259.94L318.64 263.26L316.97 266.66L315.43 270.14L314.02 273.7L312.74 277.34L311.61 281.05L310.62 284.84L309.77 288.7L309.09 292.58L309.04 292.97L309.08 292.99L309.58 293.31L310.06 293.61L310.52 293.9L310.96 294.16L311.39 294.4L311.79 294.63L312.18 294.84L312.56 295.03L312.93 295.21L313.28 295.37L313.63 295.51L313.97 295.64L314.31 295.75L314.65 295.85L314.98 295.93L315.31 296L315.65 296.06L315.99 296.1L316.34 296.13L316.69 296.15L317.05 296.16L317.42 296.15L317.81 296.13L318.21 296.11L318.62 296.07L319.05 296.02L319.5 295.96L319.97 295.89L320.47 295.82L320.99 295.73L321.53 295.64L322.1 295.53L322.71 295.42L323.34 295.31L324 295.19L324.29 295.13L324.58 295.08L324.87 295.03L325.16 294.97L325.45 294.92L325.74 294.86L326.03 294.81L326.31 294.75L326.59 294.7L326.87 294.64L327.15 294.58L327.43 294.53L327.7 294.47L327.97 294.42L328.23 294.36L328.49 294.3L328.75 294.25L329 294.19L329.25 294.14L329.49 294.09L329.73 294.03L329.96 293.98L330.19 293.93L330.41 293.88L330.62 293.83L330.83 293.78L331.02 293.73L331.22 293.69L331.4 293.64L331.58 293.6L331.75 293.56L331.91 293.51L332.06 293.47L332.2 293.44L332.33 293.4L332.46 293.37L332.57 293.33L332.67 293.3L332.77 293.27L332.85 293.25L332.98 293.19L333.11 293.14L333.24 293.08L333.37 293.03L333.5 292.97L333.63 292.91L333.75 292.85L333.87 292.79L333.99 292.73L334.11 292.66L334.23 292.6L334.34 292.53L334.45 292.47L334.56 292.4L334.67 292.34L334.77 292.27L334.87 292.21L334.97 292.14L335.07 292.07L335.16 292.01L335.25 291.94L335.33 291.87L335.42 291.81L335.49 291.74L335.57 291.68L335.64 291.62L335.7 291.55L335.77 291.49L335.82 291.43L335.88 291.37L335.93 291.31L335.97 291.25L336.01 291.19L336.04 291.14L336.07 291.08L336.1 291.03L336.12 290.98L336.13 290.93L336.14 290.88L336.14 290.83L336.14 290.82L336.13 290.81L336.12 290.79L336.1 290.78L336.08 290.76L336.05 290.75L336.02 290.74L335.99 290.72L335.95 290.71L335.9 290.69L335.86 290.67L335.8 290.66L335.75 290.64L335.69 290.63L335.62 290.61L335.56 290.6L335.49 290.58L335.41 290.57L335.33 290.55L335.25 290.54L335.17 290.52L335.08 290.51L334.99 290.49L334.9 290.48L334.8 290.46L334.7 290.45L334.6 290.43L334.5 290.42L334.39 290.4L334.29 290.39L334.17 290.38L334.06 290.36L333.95 290.35L333.83 290.34L333.71 290.33L333.59 290.31L333.47 290.3L333.35 290.29L333.22 290.28L333.1 290.27L332.97 290.26L332.84 290.25L332.72 290.24L332.59 290.23L332.46 290.21L332.34 290.2L332.21 290.19L332.09 290.17L331.96 290.16L331.84 290.14L331.72 290.12L331.59 290.11L331.47 290.09L331.35 290.07L331.24 290.05L331.12 290.03L331.01 290.01L330.89 289.99L330.78 289.97L330.67 289.95L330.57 289.93L330.46 289.91L330.36 289.89L330.26 289.87L330.17 289.85L330.08 289.83L329.99 289.81L329.9 289.79L329.82 289.77L329.74 289.74L329.66 289.72L329.59 289.7L329.52 289.68L329.45 289.66L329.39 289.64L329.33 289.62L329.28 289.6L329.23 289.58L329.19 289.56L329.15 289.54L329.09 289.5L329.03 289.47L328.97 289.44L328.92 289.4L328.87 289.37L328.83 289.33L328.78 289.3L328.74 289.27L328.7 289.23L328.66 289.2L328.63 289.16L328.59 289.12L328.56 289.09L328.54 289.05L328.51 289.01L328.49 288.96L328.47 288.92L328.45 288.87L328.43 288.82L328.42 288.77L328.4 288.72L328.39 288.67L328.38 288.61L328.38 288.55L328.37 288.48L328.37 288.41L328.37 288.34L328.37 288.27L328.37 288.19L328.37 288.11L328.38 288.02L328.38 287.93L328.39 287.84L328.4 287.74L328.41 287.63L328.42 287.53L328.44 287.41L328.45 287.29L328.47 287.17L328.49 287.04L328.5 286.96L328.51 286.88L328.52 286.8L328.53 286.72L328.55 286.64L328.56 286.56L328.57 286.48L328.59 286.4L328.61 286.32L328.62 286.24L328.64 286.17L328.66 286.09L328.68 286.02L328.69 285.95L328.71 285.87L328.73 285.8L328.75 285.73L328.78 285.67L328.8 285.6L328.82 285.54L328.84 285.47L328.86 285.41L328.88 285.35L328.91 285.29L328.93 285.24L328.95 285.19L328.97 285.14L329 285.09L329.02 285.04L329.04 285L329.07 284.95L329.09 284.92L329.11 284.88L329.14 284.85L329.16 284.82L329.18 284.79L329.2 284.77L329.23 284.74L329.25 284.73L329.27 284.71L329.41 284.62L329.57 284.54L329.74 284.45L329.92 284.37L330.11 284.3L330.31 284.22L330.53 284.16L330.75 284.09L330.99 284.03L331.23 283.97L331.49 283.91L331.75 283.86L332.02 283.81L332.3 283.76L332.58 283.72L332.88 283.68L333.17 283.65L333.48 283.61L333.79 283.59L334.11 283.56L334.43 283.54L334.75 283.53L335.08 283.52L335.41 283.51L335.74 283.5L336.08 283.5L336.42 283.51L336.76 283.51L337.1 283.53L337.44 283.54L337.78 283.56L338.12 283.59L338.47 283.61L338.81 283.65L339.14 283.68L339.48 283.73L339.81 283.77L340.14 283.82L340.47 283.88L340.79 283.94L340.89 283.96L340.99 283.98L341.1 284L341.2 284.03L341.32 284.06L341.43 284.09L341.55 284.12L341.67 284.15L341.79 284.19L341.91 284.23L342.04 284.26L342.17 284.3L342.3 284.34L342.43 284.39L342.57 284.43L342.7 284.48L342.84 284.52L342.98 284.57L343.11 284.62L343.25 284.67L343.39 284.72L343.53 284.77L343.67 284.82L343.81 284.88L343.95 284.93L344.09 284.98L344.23 285.04L344.36 285.1L344.5 285.15L344.64 285.21L344.77 285.27L344.9 285.32L345.03 285.38L345.16 285.44L345.29 285.5L345.42 285.56L345.54 285.61L345.66 285.67L345.78 285.73L345.9 285.79L346.18 285.93L346.47 286.06L346.76 286.18L347.04 286.3L347.33 286.41L347.62 286.51L347.9 286.61L348.19 286.69L348.48 286.77L348.78 286.85L349.08 286.91L349.38 286.97L349.69 287.02L350 287.06L350.31 287.1L350.64 287.13L350.97 287.15L351.31 287.16L351.66 287.16L352.01 287.16L352.38 287.15L352.75 287.14L353.14 287.11L353.53 287.08L353.94 287.04L354.36 286.99L354.8 286.94L355.24 286.88L355.7 286.81L356.18 286.73L356.67 286.64L357.18 286.55L357.7 286.45L358.24 286.34L358.8 286.23L359.37 286.1L359.96 285.97L360.58 285.83L361.21 285.68L361.86 285.53L362.52 285.37L363.17 285.22L363.8 285.07L364.43 284.93L365.04 284.79L365.64 284.65L366.24 284.51L366.82 284.38L367.4 284.25L367.97 284.13L368.53 284L369.09 283.89L369.63 283.77L370.17 283.66L370.71 283.55L371.24 283.44L371.76 283.33L372.28 283.23L372.8 283.13L373.31 283.03L373.82 282.93L374.33 282.84L374.83 282.75L375.34 282.66L375.84 282.57L376.34 282.49L376.83 282.4L377.33 282.32L377.83 282.24L378.33 282.16L378.83 282.08L379.34 282.01L379.84 281.93L380.35 281.86L380.86 281.78L381.37 281.71L381.89 281.64L382.41 281.57L382.94 281.5L383.47 281.44L389.43 280.62L387.5 279.63L385.53 278.59L387.91 277.25L388.13 277.13L388.36 276.99L388.6 276.85L388.85 276.69L389.1 276.53L389.37 276.35L389.64 276.17L389.92 275.98L390.2 275.79L390.49 275.59L390.78 275.38L391.08 275.17L391.38 274.95L391.68 274.73L391.98 274.51L392.29 274.28L392.59 274.05L392.89 273.82L393.19 273.59L393.49 273.35L393.78 273.12L394.07 272.89L394.36 272.66L394.64 272.43L394.92 272.2L395.18 271.98L395.45 271.76L395.7 271.54L395.94 271.33L396.18 271.12L396.4 270.92L396.61 270.72L396.81 270.53L397 270.35L397.18 270.18L397.34 270.02L397.49 269.86L397.62 269.71L397.73 269.58L397.83 269.45L397.87 269.4L397.9 269.35L397.94 269.3L397.97 269.25L398.01 269.2L398.04 269.15L398.08 269.1L398.11 269.05L398.14 269L398.17 268.95L398.2 268.9L398.23 268.85L398.26 268.8L398.29 268.75L398.32 268.7L398.35 268.65L398.37 268.6L398.4 268.56L398.42 268.51L398.45 268.46L398.47 268.41L398.49 268.37L398.51 268.32L398.53 268.28L398.55 268.24L398.57 268.19L398.59 268.15L398.6 268.11L398.62 268.07L398.63 268.03L398.64 268L398.65 267.96L398.66 267.93L398.67 267.89L398.68 267.86L398.68 267.83L398.69 267.8L398.69 267.78L398.69 267.75L398.69 267.73L398.69 267.7L398.7 267.68L398.7 267.65L398.7 267.63L398.71 267.6L398.71 267.58L398.72 267.56L398.73 267.53L398.74 267.51L398.74 267.49L398.75 267.47L398.77 267.45L398.78 267.43L398.79 267.41L398.8 267.39L398.82 267.37L398.83 267.35L398.85 267.33L398.86 267.31L398.88 267.3L398.9 267.28L398.91 267.27L398.93 267.25L398.95 267.24L398.97 267.22L398.99 267.21L399.01 267.2L399.03 267.19L399.05 267.18L399.08 267.17L399.1 267.16L399.12 267.15L399.14 267.15L399.17 267.14L399.19 267.14L399.21 267.13L399.24 267.13L399.26 267.13L399.29 267.13L399.31 267.12L399.37 267.12L399.43 267.09L399.51 267.05L399.59 266.99L399.69 266.92L399.8 266.83L399.91 266.73L400.03 266.62L400.16 266.49L400.3 266.35L400.44 266.19L400.6 266.03L400.75 265.85L400.92 265.67L401.09 265.47L401.26 265.27L401.44 265.05L401.62 264.83L401.81 264.6L402 264.36L402.19 264.12L402.38 263.86L402.58 263.61L402.78 263.34L402.98 263.08L403.18 262.81L403.38 262.53L403.59 262.25L403.79 261.97L403.99 261.69L404.19 261.4L404.38 261.12L404.58 260.83L404.77 260.54L404.96 260.26L405.15 259.97L405.33 259.69L405.51 259.4L405.69 259.12L405.85 258.85L405.92 258.74L405.98 258.64L406.04 258.54L406.11 258.43L406.17 258.33L406.24 258.22L406.3 258.12L406.37 258.01L406.44 257.91L406.51 257.81L406.57 257.71L406.64 257.6L406.71 257.5L406.77 257.4L406.84 257.3L406.91 257.21L406.97 257.11L407.04 257.01L407.11 256.92L407.17 256.83L407.24 256.74L407.3 256.65L407.36 256.56L407.42 256.48L407.49 256.39L407.55 256.31L407.61 256.24L407.66 256.16L407.72 256.09L407.78 256.02L407.83 255.95L407.88 255.89L407.93 255.82L407.98 255.77L408.03 255.71L408.08 255.66L408.12 255.61L408.16 255.56L408.2 255.52L408.24 255.49L408.28 255.45L408.32 255.42L408.35 255.38L408.39 255.35L408.42 255.31L408.46 255.28L408.5 255.25L408.53 255.21L408.56 255.18L408.6 255.15L408.63 255.12L408.67 255.09L408.7 255.06L408.73 255.03L408.76 255.01L408.79 254.98L408.82 254.95L408.85 254.93L408.88 254.9L408.91 254.88L408.94 254.85L408.96 254.83L408.99 254.81L409.01 254.79L409.04 254.77L409.06 254.75L409.08 254.74L409.11 254.72L409.13 254.71L409.14 254.69L409.16 254.68L409.18 254.67L409.19 254.66L409.21 254.65L409.22 254.64L409.23 254.64L409.25 254.63L409.26 254.63L409.26 254.62L409.27 254.62L409.38 254.64L409.52 254.68L409.69 254.74L409.9 254.83L410.14 254.94L410.41 255.07L410.7 255.22L411.03 255.39L411.38 255.58L411.75 255.79L412.14 256.02L412.56 256.26L412.99 256.51L413.44 256.78L413.91 257.06L414.39 257.36L414.88 257.66L415.38 257.97L415.89 258.3L416.42 258.63L416.94 258.96L417.47 259.31L418.01 259.65L418.54 260.01L419.08 260.36L419.62 260.72L420.15 261.07L420.67 261.43L421.19 261.78L421.71 262.13L422.21 262.48L422.7 262.83L423.18 263.17L423.65 263.5L424.1 263.83L424.53 264.15L424.95 264.45L425.34 264.75L425.71 265.04L426.06 265.31L426.23 265.45L426.42 265.6L426.61 265.75L426.8 265.91L427.01 266.07L427.22 266.24L427.44 266.42L427.67 266.6L427.9 266.78L428.13 266.97L428.38 267.16L428.62 267.36L428.88 267.56L429.13 267.76L429.39 267.97L429.92 268.39L430.19 268.61L430.47 268.82L430.74 269.04L431.02 269.26L431.3 269.49L431.58 269.71L431.86 269.93L432.14 270.16L432.42 270.38L432.71 270.61L432.99 270.83L433.27 271.06L433.55 271.28L433.83 271.5L434.11 271.72L434.38 271.94L434.65 272.16L434.92 272.38L435.19 272.59L435.46 272.8L435.72 273.01L435.97 273.22L436.22 273.42L442.32 278.2L442.68 278.22L441.52 274.68L440.78 270.28L440.62 265.54L441.04 260.46L442.04 255.04L443.62 249.27L443.94 248.39L444.17 246.62L444.54 244.55L444.99 242.51L445.44 240.76L444.35 240.6L438.38 239.29L432.99 237.64L428.19 235.65L423.96 233.31L420.32 230.63L417.25 227.61L414.77 224.25L412.86 220.54L411.54 216.49L410.8 212.09L410.79 211.7L410.74 211.69L406.89 211.49L403.06 211.44L399.25 211.54L395.47 211.79L391.72 212.19L391.72 212.19L388.01 212.74Z" id="bQ007uUms"/></defs><g><g><use xlink:href="#bQ007uUms" opacity="1" fill="#ffffff" fill-opacity="1"/><g><use xlink:href="#bQ007uUms" opacity="1" fill-opacity="0" stroke="#ffffff" stroke-width="2" stroke-opacity="1"/></g></g></g></svg>